<svg width="41" height="40" viewBox="0 0 41 40" fill="none" xmlns="http://www.w3.org/2000/svg">
<path d="M39.1498 11.064L39.9124 10.319L25.455 14.9983L24.3344 18.334L39.1498 11.064Z" fill="#241D1C"/>
<path d="M20.1785 16.2491L10.9601 16.5897C10.875 16.4758 10.7836 16.3656 10.6847 16.2629C9.39745 14.9244 7.14358 14.7428 5.32671 15.8284C4.31747 16.4307 3.56868 17.3385 3.21558 18.3841C2.8512 19.4622 2.95137 20.5578 3.49606 21.4669C3.63004 21.6935 3.79032 21.9026 3.97188 22.0904C4.95732 23.1134 6.50749 23.4603 7.99504 23.0784C8.03762 23.1598 8.08895 23.2399 8.15657 23.31C8.53722 23.7044 9.1658 23.717 9.56148 23.3376C9.87077 23.0396 9.94214 22.59 9.77811 22.2194C10.5607 21.6321 11.143 20.8495 11.441 19.9668C11.6451 19.3657 11.6977 18.7597 11.615 18.1825L19.0553 18.4191L20.1785 16.2491ZM10.3115 19.5899C10.0498 20.3675 9.48385 21.0474 8.71753 21.5044C7.37147 22.3096 5.73616 22.2081 4.82835 21.2678C4.7094 21.1425 4.60421 21.0061 4.51656 20.8608C4.15344 20.2548 4.09208 19.511 4.34251 18.7685C4.60421 17.9909 5.17019 17.311 5.93525 16.8527C7.28132 16.0475 8.91788 16.1477 9.82444 17.0906C9.94339 17.2145 10.0486 17.3523 10.1362 17.4988C10.5019 18.1036 10.562 18.8474 10.3115 19.5899Z" fill="#241D1C"/>
<path d="M22.0304 39.8497C22.093 39.5931 21.0375 36.7231 22.0592 35.62C22.4925 35.2819 22.8756 34.8662 23.1862 34.3891C24.3407 32.6136 24.2455 30.3547 22.9583 29.0174C22.9232 28.9811 22.8831 28.9498 22.8468 28.9134L23.4754 18.463L29.6723 0L28.7207 1.22335L19.9556 18.185L21.4181 19.774L20.8622 27.9793C20.3525 27.9192 19.8191 27.9643 19.2845 28.1208C18.2264 28.4339 17.291 29.1463 16.6499 30.1318C15.4954 31.9073 15.5906 34.1662 16.8778 35.5048C17.0594 35.6901 17.2635 35.8591 17.4826 36.0006C17.9772 36.3237 18.5344 36.504 19.1192 36.5503C20.5579 37.1939 20.6506 39.1874 20.8234 39.5981C20.9987 40.0138 21.9628 40.1202 22.0304 39.8497ZM21.5145 18.2088C21.2766 17.9596 21.2842 17.5652 21.5321 17.326C21.78 17.0894 22.1744 17.0956 22.4136 17.3448C22.6515 17.5915 22.644 17.9872 22.3961 18.2251C22.1469 18.4642 21.7525 18.4567 21.5145 18.2088ZM20.2161 35.2568C19.4635 35.4797 18.7235 35.3871 18.1312 35.0039C17.9872 34.91 17.8545 34.8011 17.7356 34.6758C16.8277 33.7342 16.7914 32.0939 17.6466 30.7817C18.1325 30.0316 18.8337 29.4944 19.6213 29.2615C20.3738 29.0387 21.1126 29.1301 21.7049 29.5132C21.8489 29.6084 21.9816 29.7186 22.1006 29.8438C23.0084 30.7854 23.0434 32.4245 22.1895 33.7392C21.7024 34.4855 21.0012 35.0265 20.2161 35.2568Z" fill="#241D1C"/>
</svg>
